<svg xmlns="http://www.w3.org/2000/svg" width="256" height="256" viewBox="0 0 100 100"><rect width="100" height="100" rx="50" fill="#61dafb"></rect><path fill="#ffffff" d="M25.82 37.92L25.82 37.92Q26.02 37.84 26.44 37.74Q26.86 37.64 27.30 37.64L27.30 37.64Q29.06 37.64 29.06 39.12L29.06 39.12L29.06 56.24Q29.06 58.04 28.54 59.26Q28.02 60.48 27.12 61.22Q26.22 61.96 25.04 62.28Q23.86 62.60 22.58 62.60L22.58 62.60Q20.30 62.60 19.26 62.06Q18.22 61.52 18.22 60.64L18.22 60.64Q18.22 60.08 18.46 59.68Q18.70 59.28 18.90 59.08L18.90 59.08Q19.50 59.36 20.34 59.60Q21.18 59.84 22.10 59.84L22.10 59.84Q23.90 59.84 24.86 58.98Q25.82 58.12 25.82 56.08L25.82 56.08L25.82 37.92ZM57.98 50L57.98 50Q57.98 53.12 57.10 55.50Q56.22 57.88 54.66 59.46Q53.10 61.04 50.98 61.86Q48.86 62.68 46.38 62.68L46.38 62.68Q43.90 62.68 41.78 61.86Q39.66 61.04 38.10 59.46Q36.54 57.88 35.66 55.50Q34.78 53.12 34.78 50L34.78 50Q34.78 46.88 35.68 44.52Q36.58 42.16 38.14 40.56Q39.70 38.96 41.82 38.14Q43.94 37.32 46.38 37.32L46.38 37.32Q48.82 37.32 50.94 38.14Q53.06 38.96 54.62 40.56Q56.18 42.16 57.08 44.52Q57.98 46.88 57.98 50ZM54.66 50L54.66 50Q54.66 45.20 52.40 42.64Q50.14 40.08 46.38 40.08L46.38 40.08Q44.50 40.08 42.98 40.74Q41.46 41.40 40.38 42.66Q39.30 43.92 38.72 45.76Q38.14 47.60 38.14 50L38.14 50Q38.14 54.80 40.38 57.36Q42.62 59.92 46.38 59.92L46.38 59.92Q50.18 59.92 52.42 57.36Q54.66 54.80 54.66 50ZM80.82 43.96L80.82 43.96Q80.82 45.68 80 47.14Q79.18 48.60 77.26 49.40L77.26 49.40Q79.54 50.16 80.66 51.78Q81.78 53.40 81.78 55.44L81.78 55.44Q81.78 59.08 79.16 60.84Q76.54 62.60 71.70 62.60L71.70 62.60Q70.02 62.60 68.44 62.46Q66.86 62.32 65.42 61.92L65.42 61.92Q63.74 61.44 63.74 60.08L63.74 60.08L63.74 39.60Q63.74 38.44 65.06 38.08L65.06 38.08Q66.42 37.68 67.94 37.54Q69.46 37.40 71.26 37.40L71.26 37.40Q75.78 37.40 78.30 39Q80.82 40.60 80.82 43.96ZM72.38 50.84L66.94 50.84L66.94 59.48Q67.90 59.68 69.16 59.80Q70.42 59.92 71.70 59.92L71.70 59.92Q75.02 59.92 76.74 58.82Q78.46 57.72 78.46 55.36L78.46 55.36Q78.46 53.28 76.92 52.06Q75.38 50.84 72.38 50.84L72.38 50.84ZM66.94 40.44L66.94 48.20L72.38 48.20Q74.90 48.20 76.20 47.08Q77.50 45.96 77.50 44.04L77.50 44.04Q77.50 40.08 71.26 40.08L71.26 40.08Q69.86 40.08 68.84 40.18Q67.82 40.28 66.94 40.44L66.94 40.44Z"></path></svg>